<?xml version="1.0" encoding="UTF-8"?>
<svg version="1.1" xmlns="http://www.w3.org/2000/svg" width="500" height="150">
<path d="M0 0 C30 0 30 0 40 5 C45.07971721 10.68928327 45.75513189 15.32951964 45.40625 22.8828125 C44.47682481 30.01436347 41.84915555 33.57358097 36.25 38 C34.84447732 39.01560349 33.43142766 40.02124605 32 41 C32.54527344 41.66644531 33.09054688 42.33289063 33.65234375 43.01953125 C35.24261297 44.96319363 36.83242247 46.9072322 38.421875 48.8515625 C40.07372867 50.87091001 41.73058662 52.88577659 43.390625 54.8984375 C47.73186921 60.16994833 51.97079649 65.48552147 56 71 C51.25742776 72.10275616 46.63079204 72.76083044 42 71 C35.71512555 66.03546381 31.29099292 58.75423917 26.77441406 52.22949219 C25.78404405 50.80712367 24.76820017 49.40258096 23.75 48 C23.24984375 47.236875 22.7496875 46.47375 22.234375 45.6875 C19.12774228 43.03696687 19.12774228 43.03696687 10 43 C10 52.24 10 61.48 10 71 C6.7 71 3.4 71 0 71 C0 47.57 0 24.14 0 0 Z M10 8 C10 16.91 10 25.82 10 35 C21.633166 35.73541141 21.633166 35.73541141 31.3125 30.9375 C33.80840859 26.59277023 35.61194385 22.03057909 34.58984375 16.96875 C33.16815029 13.3018685 31.47233344 10.83829417 28 9 C21.72524512 7.57508171 21.72524512 7.57508171 10 8 Z " fill="#FFFFFF" transform="translate(24,38)"/>
<path d="M0 0 C4.29 0 8.58 0 13 0 C21.09814316 23.63450279 29.14838649 47.28233801 37 71 C33.37 71 29.74 71 26 71 C23.42107772 64.68608683 21.16591679 58.49775036 19 52 C6.13 51.505 6.13 51.505 -7 51 C-7.99 54.63 -8.98 58.26 -10 62 C-10.97823519 65.00716742 -11.9706377 68.00994762 -13 71 C-16.63 71 -20.26 71 -24 71 C-18.0809287 52.55531957 -12.11879554 34.12905061 -5.8125 15.8125 C-5.57493988 15.12124023 -5.33737976 14.42998047 -5.09262085 13.71777344 C-1.1948946 2.38978921 -1.1948946 2.38978921 0 0 Z M6 12 C3.14771111 18.5267081 0.89757021 25.21635464 -1.25 32 C-1.52021973 32.84925049 -1.79043945 33.69850098 -2.06884766 34.57348633 C-2.31940918 35.37423584 -2.5699707 36.17498535 -2.828125 37 C-3.0540332 37.721875 -3.27994141 38.44375 -3.51269531 39.1875 C-4.08654586 41.00909121 -4.08654586 41.00909121 -4 43 C2.6 43 9.2 43 16 43 C14.36163808 35.5524071 14.36163808 35.5524071 12.2734375 28.30859375 C11.9640625 27.34501953 11.6546875 26.38144531 11.3359375 25.38867188 C11.01882813 24.41478516 10.70171875 23.44089844 10.375 22.4375 C10.05015625 21.42880859 9.7253125 20.42011719 9.390625 19.38085938 C8.59735302 16.91938308 7.80041857 14.4591597 7 12 C6.67 12 6.34 12 6 12 Z " fill="#FFFFFF" transform="translate(342,38)"/>
<path d="M0 0 C5.86664155 3.17963015 8.33464429 8.14205274 10.609375 14.234375 C11.421875 17.171875 11.421875 17.171875 11.609375 20.234375 C11.65964844 21.03359375 11.70992188 21.8328125 11.76171875 22.65625 C12.08034845 31.67984315 10.75078423 40.56075672 5.00390625 47.80078125 C1.20115659 51.71005051 -2.89563783 54.09283879 -8.3515625 54.40234375 C-9.47820312 54.40878906 -10.60484375 54.41523437 -11.765625 54.421875 C-12.88710938 54.43605469 -14.00859375 54.45023438 -15.1640625 54.46484375 C-18.390625 54.234375 -18.390625 54.234375 -23.390625 52.234375 C-23.720625 59.164375 -24.050625 66.094375 -24.390625 73.234375 C-27.690625 73.234375 -30.990625 73.234375 -34.390625 73.234375 C-34.390625 49.144375 -34.390625 25.054375 -34.390625 0.234375 C-31.090625 0.234375 -27.790625 0.234375 -24.390625 0.234375 C-24.060625 1.554375 -23.730625 2.874375 -23.390625 4.234375 C-22.4625 3.595 -21.534375 2.955625 -20.578125 2.296875 C-14.46065375 -1.66148875 -6.96903335 -2.23191264 0 0 Z M-24.390625 13.234375 C-24.47846042 15.45292764 -24.49757109 17.67425996 -24.48828125 19.89453125 C-24.4868663 20.55899765 -24.48545135 21.22346405 -24.48399353 21.9080658 C-24.47838018 24.03771399 -24.46582554 26.16725839 -24.453125 28.296875 C-24.44811171 29.73762869 -24.44354851 31.17838403 -24.43945312 32.61914062 C-24.42840645 36.15758602 -24.41113292 39.69597039 -24.390625 43.234375 C-18.35542715 45.72939374 -13.84105608 47.1897737 -7.390625 45.234375 C-3.08327561 42.8465054 -0.91912111 39.86699757 0.609375 35.234375 C2.06544719 26.82673233 2.58517612 18.00646308 -2.515625 10.734375 C-5.38394067 8.24018746 -7.29905942 7.15891539 -11.125 6.91796875 C-15.68063151 7.55418625 -21.09739918 9.94114918 -24.390625 13.234375 Z " fill="#FFFFFF" transform="translate(472.390625,55.765625)"/>
<path d="M0 0 C5.86664155 3.17963015 8.33464429 8.14205274 10.609375 14.234375 C11.421875 17.171875 11.421875 17.171875 11.609375 20.234375 C11.65964844 21.03359375 11.70992188 21.8328125 11.76171875 22.65625 C12.08034845 31.67984315 10.75078423 40.56075672 5.00390625 47.80078125 C1.20115659 51.71005051 -2.89563783 54.09283879 -8.3515625 54.40234375 C-9.47820312 54.40878906 -10.60484375 54.41523437 -11.765625 54.421875 C-12.88710938 54.43605469 -14.00859375 54.45023438 -15.1640625 54.46484375 C-18.390625 54.234375 -18.390625 54.234375 -23.390625 52.234375 C-23.720625 59.164375 -24.050625 66.094375 -24.390625 73.234375 C-27.690625 73.234375 -30.990625 73.234375 -34.390625 73.234375 C-34.390625 49.144375 -34.390625 25.054375 -34.390625 0.234375 C-31.090625 0.234375 -27.790625 0.234375 -24.390625 0.234375 C-24.060625 1.554375 -23.730625 2.874375 -23.390625 4.234375 C-22.4625 3.595 -21.534375 2.955625 -20.578125 2.296875 C-14.46065375 -1.66148875 -6.96903335 -2.23191264 0 0 Z M-24.390625 13.234375 C-24.47846042 15.45292764 -24.49757109 17.67425996 -24.48828125 19.89453125 C-24.4868663 20.55899765 -24.48545135 21.22346405 -24.48399353 21.9080658 C-24.47838018 24.03771399 -24.46582554 26.16725839 -24.453125 28.296875 C-24.44811171 29.73762869 -24.44354851 31.17838403 -24.43945312 32.61914062 C-24.42840645 36.15758602 -24.41113292 39.69597039 -24.390625 43.234375 C-18.35542715 45.72939374 -13.84105608 47.1897737 -7.390625 45.234375 C-3.08327561 42.8465054 -0.91912111 39.86699757 0.609375 35.234375 C2.06544719 26.82673233 2.58517612 18.00646308 -2.515625 10.734375 C-5.38394067 8.24018746 -7.29905942 7.15891539 -11.125 6.91796875 C-15.68063151 7.55418625 -21.09739918 9.94114918 -24.390625 13.234375 Z " fill="#FFFFFF" transform="translate(418.390625,55.765625)"/>
<path d="M0 0 C0.80759766 -0.02449219 1.61519531 -0.04898438 2.44726562 -0.07421875 C8.24679256 -0.10225836 12.76217083 1.01916835 17.5625 4.375 C21.27838542 8.94839744 22.6943961 12.69583107 22.67602539 18.50097656 C22.67594986 19.30150452 22.67587433 20.10203247 22.67579651 20.92681885 C22.67063522 21.78112488 22.66547394 22.63543091 22.66015625 23.515625 C22.6587413 24.39780701 22.65732635 25.27998901 22.65586853 26.18890381 C22.65028001 29.00097065 22.63772961 31.8129573 22.625 34.625 C22.61998352 36.53385302 22.61542087 38.44270728 22.61132812 40.3515625 C22.60031434 45.02607247 22.58305758 49.70052265 22.5625 54.375 C19.2625 54.375 15.9625 54.375 12.5625 54.375 C12.0675 52.395 12.0675 52.395 11.5625 50.375 C10.1703125 51.3340625 10.1703125 51.3340625 8.75 52.3125 C2.89872887 56.09861662 -2.64752559 55.8696339 -9.4375 55.375 C-14.20983575 53.75581466 -16.69638217 51.5845738 -19.4375 47.375 C-22.05026933 42.02504376 -21.57254412 37.06929697 -20.4375 31.375 C-18.52197684 26.47977414 -15.05792901 24.51207209 -10.4375 22.375 C-2.89062332 19.38769465 4.5614026 19.23011091 12.5625 19.375 C11.82960198 15.05904498 11.38766934 12.96178709 7.75 10.375 C2.21827849 8.47310833 -3.76459297 9.65609961 -9.4375 10.375 C-10.22769531 10.47425781 -11.01789063 10.57351562 -11.83203125 10.67578125 C-13.37052217 10.88571789 -14.90492601 11.12551121 -16.4375 11.375 C-16.4375 8.405 -16.4375 5.435 -16.4375 2.375 C-10.86024234 0.50343703 -5.86621364 0.00931885 0 0 Z M-8.4375 31.375 C-10.89919806 35.06754709 -11.11150239 38.08903609 -10.4375 42.375 C-8.2761201 45.88724234 -6.68435901 46.30917093 -2.6875 47.375 C3.33407807 47.88148787 7.7441178 44.5872548 12.5625 41.375 C12.78387393 38.74802936 12.84412025 36.36606036 12.75 33.75 C12.73646484 33.04359375 12.72292969 32.3371875 12.70898438 31.609375 C12.6736104 29.86425872 12.61980221 28.11953392 12.5625 26.375 C5.56265589 26.375 -2.57589222 27.4144542 -8.4375 31.375 Z " fill="#FFFFFF" transform="translate(238.4375,54.625)"/>
<path d="M0 0 C1.175625 -0.01675781 2.35125 -0.03351562 3.5625 -0.05078125 C8.93754535 0.51726332 12.81663185 2.5184101 16.25 6.6875 C16.72953125 7.25210938 17.2090625 7.81671875 17.703125 8.3984375 C22.53055883 15.52326454 21 19.84533457 21 29.3125 C8.79 29.3125 -3.42 29.3125 -16 29.3125 C-13.75873281 38.58638974 -13.75873281 38.58638974 -8 44.3125 C-1.40528885 47.323129 4.02325113 46.81205909 10.6875 44.375 C11.59886719 44.01535156 12.51023438 43.65570313 13.44921875 43.28515625 C16 42.3125 16 42.3125 20 41.3125 C20 44.6125 20 47.9125 20 51.3125 C10.01312971 55.72976955 -0.87205918 57.52410395 -11.5 53.8125 C-17.57888957 50.89948803 -21.54911235 46.82174038 -24.12890625 40.58203125 C-26.86575751 31.29146442 -26.90829547 21.78297377 -22.875 12.875 C-19.78616459 7.40055107 -16.06201339 3.56221374 -10.21484375 1.17578125 C-6.69387732 0.23029695 -3.64268308 0.01198251 0 0 Z M-12.25 12.5625 C-14.50217188 15.81379395 -14.50217188 15.81379395 -16 22.3125 C-6.76 22.3125 2.48 22.3125 12 22.3125 C11.25074674 15.54103037 11.25074674 15.54103037 8 10.3125 C0.62571718 5.56018441 -6.02626897 6.33876897 -12.25 12.5625 Z " fill="#FFFFFF" transform="translate(104,54.6875)"/>
<path d="M0 0 C4.38102428 4.16197307 7.2538984 8.28286219 7.62025452 14.37457275 C7.61803391 15.07628601 7.61581329 15.77799927 7.61352539 16.50097656 C7.61344986 17.30150452 7.61337433 18.10203247 7.61329651 18.92681885 C7.60813522 19.78112488 7.60297394 20.63543091 7.59765625 21.515625 C7.5962413 22.39780701 7.59482635 23.27998901 7.59336853 24.18890381 C7.58778001 27.00097065 7.57522961 29.8129573 7.5625 32.625 C7.55748352 34.53385302 7.55292087 36.44270728 7.54882812 38.3515625 C7.53781434 43.02607247 7.52055758 47.70052265 7.5 52.375 C4.2 52.375 0.9 52.375 -2.5 52.375 C-2.529729 50.6875769 -2.529729 50.6875769 -2.56005859 48.96606445 C-2.63628155 44.78192219 -2.72497306 40.59812013 -2.81738281 36.41430664 C-2.85560367 34.60545582 -2.8904685 32.79653079 -2.921875 30.98754883 C-2.96767557 28.38335698 -3.02564474 25.779673 -3.0859375 23.17578125 C-3.09748871 22.37038406 -3.10903992 21.56498688 -3.12094116 20.73518372 C-3.2304451 16.54447959 -3.49819474 13.16370951 -5.5 9.375 C-8.16252138 7.12209729 -9.78044197 7.38419482 -13.3125 7.5 C-17.48626512 7.93028506 -21.42084175 9.51096943 -24.5 12.375 C-25.54179739 15.4065254 -25.4554372 18.33376868 -25.40234375 21.515625 C-25.42078087 22.83889801 -25.42078087 22.83889801 -25.43959045 24.18890381 C-25.4713405 27.00178035 -25.45503895 29.81204111 -25.4375 32.625 C-25.45060776 34.53387855 -25.46684699 36.44273835 -25.48632812 38.3515625 C-25.52720037 43.02660043 -25.52498886 47.69986887 -25.5 52.375 C-28.8 52.375 -32.1 52.375 -35.5 52.375 C-35.5 34.885 -35.5 17.395 -35.5 -0.625 C-32.2 -0.625 -28.9 -0.625 -25.5 -0.625 C-25.17 0.695 -24.84 2.015 -24.5 3.375 C-23.571875 2.735625 -22.64375 2.09625 -21.6875 1.4375 C-15.21507989 -2.75053654 -7.00902292 -3.25418921 0 0 Z " fill="#FFFFFF" transform="translate(168.5,56.625)"/>
<path d="M0 0 C3.3 0 6.6 0 10 0 C10 4.95 10 9.9 10 15 C15.28 15 20.56 15 26 15 C26 17.31 26 19.62 26 22 C20.72 22 15.44 22 10 22 C10.495 40.315 10.495 40.315 11 59 C18.82452339 59.99765248 18.82452339 59.99765248 26 59 C26 61.97 26 64.94 26 68 C19.81520243 70.06159919 12.5014023 69.86255252 6.375 67.75 C2.90135668 65.19047334 1.36018138 63.08054414 0 59 C-0.08518867 56.19573548 -0.1158852 53.4170365 -0.09765625 50.61328125 C-0.0962413 49.79627243 -0.09482635 48.97926361 -0.09336853 48.13749695 C-0.08777294 45.52912732 -0.07522129 42.92084366 -0.0625 40.3125 C-0.05748443 38.54362103 -0.05292162 36.77474072 -0.04882812 35.00585938 C-0.03780496 30.67053981 -0.02054338 26.33528448 0 22 C-1.98 22 -3.96 22 -6 22 C-6 19.69 -6 17.38 -6 15 C-4.02 15 -2.04 15 0 15 C0 10.05 0 5.1 0 0 Z " fill="#FFFFFF" transform="translate(189,41)"/>
<path d="M0 0 C3.3 0 6.6 0 10 0 C10 24.42 10 48.84 10 74 C6.7 74 3.4 74 0 74 C0 49.58 0 25.16 0 0 Z " fill="#FFFFFF" transform="translate(272,35)"/>
</svg>
